<svg width="11" height="7" viewBox="0 0 11 7" fill="none" xmlns="http://www.w3.org/2000/svg">
<path d="M1.13086 1.61683L5.89477 6.5835L10.6587 1.61683C10.7881 1.48146 10.8588 1.29983 10.8553 1.11191C10.8519 0.923978 10.7744 0.745145 10.6401 0.614747C10.5057 0.484349 10.3254 0.413068 10.1389 0.416584C9.95242 0.4201 9.77493 0.498126 9.64552 0.633497L5.89477 4.546L2.13988 0.633497C2.01046 0.498126 1.83298 0.4201 1.64646 0.416584C1.45995 0.413068 1.27969 0.484349 1.14533 0.614747C1.01098 0.745145 0.933541 0.923978 0.930052 1.11191C0.926561 1.29983 0.997307 1.48146 1.12673 1.61683H1.13086Z" fill="#152144"/>
</svg>
