<svg width="29" height="29" viewBox="0 0 29 29" fill="none" xmlns="http://www.w3.org/2000/svg">
<path d="M11.2777 3.22217H4.83328C3.94349 3.22217 3.22217 3.94349 3.22217 4.83328V11.2777C3.22217 12.1675 3.94349 12.8888 4.83328 12.8888H11.2777C12.1675 12.8888 12.8888 12.1675 12.8888 11.2777V4.83328C12.8888 3.94349 12.1675 3.22217 11.2777 3.22217Z" fill="white"/>
<path d="M24.1669 3.22217H17.7224C16.8326 3.22217 16.1113 3.94349 16.1113 4.83328V11.2777C16.1113 12.1675 16.8326 12.8888 17.7224 12.8888H24.1669C25.0567 12.8888 25.778 12.1675 25.778 11.2777V4.83328C25.778 3.94349 25.0567 3.22217 24.1669 3.22217Z" fill="white"/>
<path d="M11.2777 16.1111H4.83328C3.94349 16.1111 3.22217 16.8324 3.22217 17.7222V24.1666C3.22217 25.0564 3.94349 25.7778 4.83328 25.7778H11.2777C12.1675 25.7778 12.8888 25.0564 12.8888 24.1666V17.7222C12.8888 16.8324 12.1675 16.1111 11.2777 16.1111Z" fill="white"/>
<path d="M24.1669 16.1111H17.7224C16.8326 16.1111 16.1113 16.8324 16.1113 17.7222V24.1666C16.1113 25.0564 16.8326 25.7778 17.7224 25.7778H24.1669C25.0567 25.7778 25.778 25.0564 25.778 24.1666V17.7222C25.778 16.8324 25.0567 16.1111 24.1669 16.1111Z" fill="white"/>
</svg>
