<svg width="26" height="27" viewBox="0 0 26 27" fill="none" xmlns="http://www.w3.org/2000/svg">
<path d="M21.1768 18.3334C20.6342 18.3354 20.0977 18.4471 19.5993 18.6617C19.101 18.8762 18.6512 19.1893 18.2768 19.582L8.45706 14.6681C8.69862 13.9356 8.69862 13.145 8.45706 12.4125L18.2929 7.41003C18.9974 8.15246 19.9528 8.60641 20.9734 8.68366C21.994 8.76091 23.0068 8.45594 23.815 7.82803C24.6233 7.20011 25.1692 6.29411 25.3467 5.28612C25.5241 4.27813 25.3205 3.24017 24.7753 2.37397C24.2301 1.50777 23.3823 0.875223 22.3967 0.599274C21.4111 0.323324 20.3581 0.423687 19.4424 0.880854C18.5267 1.33802 17.8137 2.11933 17.4419 3.07293C17.0702 4.02652 17.0663 5.08427 17.431 6.04059L7.69179 10.9948C7.1658 10.3515 6.45372 9.88662 5.65318 9.66392C4.85263 9.44121 4.0028 9.47156 3.22017 9.75079C2.43755 10.03 1.76044 10.5445 1.28167 11.2236C0.802899 11.9028 0.545898 12.7134 0.545898 13.5443C0.545898 14.3753 0.802899 15.1859 1.28167 15.865C1.76044 16.5442 2.43755 17.0587 3.22017 17.3379C4.0028 17.6171 4.85263 17.6475 5.65318 17.4248C6.45372 17.2021 7.1658 16.7372 7.69179 16.0939L17.4068 20.9836C17.2426 21.4244 17.1581 21.8908 17.1571 22.3611C17.1571 23.1578 17.3933 23.9365 17.8359 24.5989C18.2784 25.2612 18.9075 25.7775 19.6435 26.0823C20.3795 26.3872 21.1893 26.4669 21.9706 26.3115C22.7519 26.1561 23.4696 25.7725 24.0329 25.2092C24.5962 24.6459 24.9798 23.9282 25.1352 23.1469C25.2906 22.3656 25.2109 21.5558 24.906 20.8198C24.6012 20.0838 24.0849 19.4547 23.4226 19.0122C22.7602 18.5696 21.9815 18.3334 21.1848 18.3334H21.1768Z" fill="white"/>
</svg>
