<svg width="29" height="29" viewBox="0 0 29 29" fill="none" xmlns="http://www.w3.org/2000/svg">
<path d="M13.6944 17.7222C13.6944 17.5085 13.7793 17.3036 13.9303 17.1526C14.0814 17.0015 14.2863 16.9166 14.4999 16.9166H20.9444V4.83328C20.9444 4.40599 20.7746 3.99619 20.4725 3.69405C20.1704 3.39191 19.7606 3.22217 19.3333 3.22217H8.75633L3.22217 8.74828V24.1666C3.22217 24.5939 3.39191 25.0037 3.69405 25.3058C3.99619 25.608 4.40599 25.7777 4.83328 25.7777H19.3333C19.7606 25.7777 20.1704 25.608 20.4725 25.3058C20.7746 25.0037 20.9444 24.5939 20.9444 24.1666V18.5277H14.4999C14.2863 18.5277 14.0814 18.4429 13.9303 18.2918C13.7793 18.1407 13.6944 17.9358 13.6944 17.7222ZM9.66661 9.66661H4.83328V9.40884L9.41689 4.83328H9.66661V9.66661Z" fill="white"/>
<path d="M23.6188 13.1708C23.4647 13.0388 23.2664 12.9698 23.0637 12.9777C22.861 12.9855 22.6687 13.0695 22.5252 13.213C22.3817 13.3565 22.2977 13.5488 22.2898 13.7515C22.282 13.9543 22.351 14.1525 22.4829 14.3066L25.101 16.9166H20.9443V18.5277H25.1252L22.4829 21.1699C22.3986 21.2421 22.3301 21.331 22.2818 21.4309C22.2334 21.5309 22.2063 21.6397 22.202 21.7507C22.1977 21.8616 22.2164 21.9723 22.2569 22.0756C22.2974 22.179 22.3588 22.2729 22.4373 22.3514C22.5158 22.4299 22.6097 22.4913 22.7131 22.5318C22.8164 22.5723 22.9271 22.591 23.038 22.5867C23.149 22.5824 23.2578 22.5553 23.3578 22.5069C23.4577 22.4586 23.5466 22.3901 23.6188 22.3058L28.1943 17.7221L23.6188 13.1708Z" fill="white"/>
</svg>
